<svg width="755" height="184" viewBox="0 0 755 184" fill="none" xmlns="http://www.w3.org/2000/svg">
<path d="M0 49.2937L23.8216 72.5898C50.355 98.5379 94.0466 93.4731 113.94 62.143V62.143C134.105 30.3864 178.596 25.7038 204.93 52.5666L219.457 67.3856C240.955 89.3151 276.873 87.1924 295.638 62.8834V62.8834C313.083 40.2839 345.761 36.5854 367.816 54.7142L401.416 82.3329C418.555 96.4208 444.166 92.2788 455.99 73.5067L457.928 70.4301C471.869 48.298 504.562 49.3373 517.547 72.0438V72.0438C530.504 94.7032 563.249 95.4225 576.718 73.0636V73.0636C589.534 51.7903 620.037 50.8444 634.146 71.2828L637.022 75.4478C652.421 97.7551 685.698 96.7728 699.755 73.5959V73.5959C716.71 45.64 758.851 51.3815 767.709 82.8542L772 98.1011" stroke="#BEB1B1" stroke-width="6.64634"/>
<path d="M0 80.2937L23.8216 103.59C50.355 129.538 94.0466 124.473 113.94 93.143V93.143C134.105 61.3864 178.596 56.7038 204.93 83.5666L219.457 98.3856C240.955 120.315 276.873 118.192 295.638 93.8834V93.8834C313.083 71.2839 345.761 67.5854 367.816 85.7142L401.416 113.333C418.555 127.421 444.166 123.279 455.99 104.507L457.928 101.43C471.869 79.298 504.562 80.3373 517.547 103.044V103.044C530.504 125.703 563.249 126.423 576.718 104.064V104.064C589.534 82.7903 620.037 81.8444 634.146 102.283L637.022 106.448C652.421 128.755 685.698 127.773 699.755 104.596V104.596C716.71 76.64 758.851 82.3815 767.709 113.854L772 129.101" stroke="#BEB1B1" stroke-width="6.64634"/>
<path d="M0 110.294L23.8216 133.59C50.355 159.538 94.0466 154.473 113.94 123.143V123.143C134.105 91.3864 178.596 86.7038 204.93 113.567L219.457 128.386C240.955 150.315 276.873 148.192 295.638 123.883V123.883C313.083 101.284 345.761 97.5854 367.816 115.714L401.416 143.333C418.555 157.421 444.166 153.279 455.99 134.507L457.928 131.43C471.869 109.298 504.562 110.337 517.547 133.044V133.044C530.504 155.703 563.249 156.423 576.718 134.064V134.064C589.534 112.79 620.037 111.844 634.146 132.283L637.022 136.448C652.421 158.755 685.698 157.773 699.755 134.596V134.596C716.71 106.64 758.851 112.381 767.709 143.854L772 159.101" stroke="#BEB1B1" stroke-width="6.64634"/>
</svg>
